<svg width="54" height="44" viewBox="0 0 54 44" fill="none" xmlns="http://www.w3.org/2000/svg">
<rect width="53.1171" height="44" rx="6.34234" fill="#6360FF"/>
<path d="M18.4722 7.68833C18.8739 7.68833 19.2016 7.82046 19.4553 8.08472C19.709 8.34899 19.8358 8.69253 19.8358 9.11535V17.7409C19.8358 18.1426 19.7195 18.4597 19.487 18.6923C19.2544 18.9248 18.9479 19.0411 18.5674 19.0411C18.1974 19.0411 17.8908 18.9248 17.6477 18.6923C17.4152 18.4597 17.2989 18.1426 17.2989 17.7409V13.0793L15.4913 16.409C15.3116 16.7473 15.1213 16.9904 14.9205 17.1384C14.7197 17.2758 14.4818 17.3445 14.207 17.3445C13.9322 17.3445 13.6943 17.2758 13.4935 17.1384C13.2926 16.9904 13.1024 16.7473 12.9227 16.409L11.131 13.1745V17.7409C11.131 18.132 11.0094 18.4492 10.7663 18.6923C10.5337 18.9248 10.2272 19.0411 9.84663 19.0411C9.47666 19.0411 9.17012 18.9248 8.92699 18.6923C8.69444 18.4597 8.57816 18.1426 8.57816 17.7409V9.11535C8.57816 8.69253 8.70501 8.34899 8.9587 8.08472C9.22297 7.82046 9.55594 7.68833 9.95762 7.68833C10.243 7.68833 10.502 7.77289 10.7346 7.94202C10.9671 8.10058 11.1627 8.33313 11.3212 8.63968L14.2387 14.1258L17.1403 8.63968C17.468 8.00544 17.912 7.68833 18.4722 7.68833ZM27.2056 19.0887C26.064 19.0887 25.0703 18.8561 24.2247 18.391C23.3896 17.9154 22.7448 17.2494 22.2903 16.3932C21.8357 15.5264 21.6085 14.5116 21.6085 13.3489C21.6085 12.1861 21.8357 11.1766 22.2903 10.3204C22.7448 9.45361 23.3896 8.78767 24.2247 8.32256C25.0703 7.85746 26.064 7.6249 27.2056 7.6249C28.3472 7.6249 29.3355 7.85746 30.1706 8.32256C31.0163 8.78767 31.6611 9.45361 32.105 10.3204C32.5596 11.1766 32.7868 12.1861 32.7868 13.3489C32.7868 14.5116 32.5596 15.5264 32.105 16.3932C31.6505 17.2494 31.0004 17.9154 30.1548 18.391C29.3197 18.8561 28.3366 19.0887 27.2056 19.0887ZM27.2056 16.853C28.0512 16.853 28.7119 16.557 29.1876 15.9651C29.6632 15.3626 29.9011 14.4905 29.9011 13.3489C29.9011 12.2072 29.6579 11.3405 29.1717 10.7485C28.696 10.1566 28.0406 9.86058 27.2056 9.86058C26.3599 9.86058 25.6993 10.1566 25.2236 10.7485C24.7479 11.3299 24.5101 12.1967 24.5101 13.3489C24.5101 14.5011 24.7479 15.3731 25.2236 15.9651C25.6993 16.557 26.3599 16.853 27.2056 16.853ZM42.1959 8.44941C42.3122 8.19571 42.476 8.00544 42.6875 7.8786C42.8989 7.75175 43.1314 7.68833 43.3851 7.68833C43.7657 7.68833 44.1092 7.80989 44.4157 8.05301C44.7223 8.29613 44.8756 8.60268 44.8756 8.97265C44.8756 9.15235 44.828 9.33734 44.7329 9.52761L40.5469 18.169C40.4095 18.4545 40.2034 18.6764 39.9285 18.835C39.6537 18.983 39.3577 19.057 39.0406 19.057C38.7235 19.057 38.4275 18.983 38.1527 18.835C37.8778 18.6764 37.6717 18.4545 37.5343 18.169L33.3484 9.52761C33.2638 9.35848 33.2215 9.17349 33.2215 8.97265C33.2215 8.61325 33.3801 8.31199 33.6972 8.06887C34.0143 7.81517 34.3684 7.68833 34.7595 7.68833C35.0132 7.68833 35.2458 7.75175 35.4572 7.8786C35.6792 8.00544 35.8483 8.19571 35.9646 8.44941L39.0882 15.204L42.1959 8.44941ZM12.5421 35.0253C12.0982 35.0253 11.7388 34.8984 11.4639 34.6447C11.1997 34.3805 11.0675 34.0316 11.0675 33.5982V26.1301H8.83186C8.36675 26.1301 8.01792 26.035 7.78537 25.8447C7.56339 25.6439 7.4524 25.3426 7.4524 24.9409C7.4524 24.5393 7.56339 24.2433 7.78537 24.053C8.01792 23.8627 8.36675 23.7676 8.83186 23.7676H16.2524C16.7175 23.7676 17.061 23.8627 17.283 24.053C17.5156 24.2433 17.6319 24.5393 17.6319 24.9409C17.6319 25.3426 17.5156 25.6439 17.283 25.8447C17.061 26.035 16.7175 26.1301 16.2524 26.1301H14.0167V33.5982C14.0167 34.0316 13.8793 34.3805 13.6045 34.6447C13.3402 34.8984 12.9861 35.0253 12.5421 35.0253ZM20.0076 35.0411C19.5637 35.0411 19.2096 34.9143 18.9453 34.6606C18.6916 34.3963 18.5648 34.0422 18.5648 33.5982V25.1154C18.5648 24.682 18.6916 24.3384 18.9453 24.0847C19.2096 23.8205 19.5637 23.6883 20.0076 23.6883C20.4622 23.6883 20.8216 23.8205 21.0858 24.0847C21.3501 24.3384 21.4822 24.682 21.4822 25.1154V33.5982C21.4822 34.0422 21.3501 34.3963 21.0858 34.6606C20.8216 34.9143 20.4622 35.0411 20.0076 35.0411ZM33.43 23.6883C33.8317 23.6883 34.1594 23.8205 34.4131 24.0847C34.6667 24.349 34.7936 24.6925 34.7936 25.1154V33.7409C34.7936 34.1426 34.6773 34.4597 34.4448 34.6923C34.2122 34.9248 33.9057 35.0411 33.5251 35.0411C33.1552 35.0411 32.8486 34.9248 32.6055 34.6923C32.3729 34.4597 32.2567 34.1426 32.2567 33.7409V29.0793L30.4491 32.409C30.2694 32.7473 30.0791 32.9904 29.8783 33.1384C29.6774 33.2758 29.4396 33.3445 29.1648 33.3445C28.8899 33.3445 28.6521 33.2758 28.4512 33.1384C28.2504 32.9904 28.0601 32.7473 27.8804 32.409L26.0887 29.1745V33.7409C26.0887 34.132 25.9672 34.4492 25.724 34.6923C25.4915 34.9248 25.1849 35.0411 24.8044 35.0411C24.4344 35.0411 24.1279 34.9248 23.8848 34.6923C23.6522 34.4597 23.5359 34.1426 23.5359 33.7409V25.1154C23.5359 24.6925 23.6628 24.349 23.9165 24.0847C24.1807 23.8205 24.5137 23.6883 24.9154 23.6883C25.2008 23.6883 25.4598 23.7729 25.6923 23.942C25.9249 24.1006 26.1204 24.3331 26.279 24.6397L29.1965 30.1258L32.0981 24.6397C32.4258 24.0054 32.8697 23.6883 33.43 23.6883ZM38.1994 34.946C37.766 34.946 37.433 34.8297 37.2005 34.5972C36.9679 34.3646 36.8516 34.0316 36.8516 33.5982V25.1154C36.8516 24.682 36.9679 24.349 37.2005 24.1164C37.433 23.8839 37.766 23.7676 38.1994 23.7676H43.6855C44.14 23.7676 44.4836 23.8627 44.7161 24.053C44.9487 24.2433 45.065 24.5181 45.065 24.8775C45.065 25.6386 44.6051 26.0191 43.6855 26.0191H39.6898V28.1438H43.3684C44.288 28.1438 44.7478 28.5191 44.7478 29.2696C44.7478 29.629 44.6316 29.9038 44.399 30.0941C44.1665 30.2844 43.8229 30.3795 43.3684 30.3795H39.6898V32.6945H43.6855C44.6051 32.6945 45.065 33.075 45.065 33.8361C45.065 34.1955 44.9487 34.4703 44.7161 34.6606C44.4836 34.8508 44.14 34.946 43.6855 34.946H38.1994Z" fill="white"/>
</svg>
